# xmcd
#
# Track frame offsets:
#	150
#	13594
#	36352
#	51458
#	65897
#	81373
#	96252
#	115630
#	142139
#	159842
#	176719
#	189614
#	214308
#	243033
#
# Disc length: 3660 seconds
#
# Revision: 0
# Processed by: cddbd v1.5.2PL0 Copyright (c) Steve Scherf et al.
# Submitted via: EZCDAudioConverter 2.1.7.1
#
DISCID=cb0e4a0e
DTITLE=Pat Thomas - Coming Home 1/2
DYEAR=1900
DGENRE=
TTITLE0=Broadway Dance Band - Go Modern
TTITLE1=Ogyatanaa Show Band with Pat Thomas - (Super) Yaa Amponsah
TTITLE2=Pat Thomas and The Black Berets - Obra E Yebo Yi
TTITLE3=Pat Thomas and The Big '7' - Eye Colo
TTITLE4=Pat Thomas - Awurade Mpaebo
TTITLE5=Pat Thomas and The Sweet Beans - Merebre
TTITLE6=Pat Thomas and The Sweet Beans - Revolution
TTITLE7=Pat Thomas and Marijata - We Are Coming Home
TTITLE8=Pat Thomas and Marijata - Let's Think It Over
TTITLE9=Pat Thomas and Marijata - Brain Washing
TTITLE10=Pat Thomas and The Sweet Beans - Set Me Free
TTITLE11=Pat Thomas and Marijata - I Can Say
TTITLE12=Ebo Taylor featuring Pat Thomas - No Money, No Love
TTITLE13=Ebo Taylor featuring Pat Thomas - Sack The Devils
EXTD=
EXTT0=
EXTT1=
EXTT2=
EXTT3=
EXTT4=
EXTT5=
EXTT6=
EXTT7=
EXTT8=
EXTT9=
EXTT10=
EXTT11=
EXTT12=
EXTT13=
PLAYORDER=
